<svg width="411" height="256" viewBox="0 0 411 256" fill="none" xmlns="http://www.w3.org/2000/svg">
<g filter="url(#filter0_d_0_1010)">
<g clip-path="url(#clip0_0_1010)">
<rect x="4" y="0.361084" width="403" height="247" rx="16" fill="#F9FAFB"/>
<g clip-path="url(#clip1_0_1010)">
<path d="M-1.54413 8.6636C-1.54413 4.07825 2.17304 0.361084 6.75839 0.361084H404.242C408.827 0.361084 412.544 4.07825 412.544 8.6636V247.361H-1.54413V8.6636Z" fill="url(#paint0_linear_0_1010)"/>
<path fill-rule="evenodd" clip-rule="evenodd" d="M641.785 243.27L586.443 208.091H481.937L520.187 242.185L519.41 243.27H641.785ZM545.934 178.562L587.349 204.888H686.827L634.292 178.562H545.934ZM540.896 175.359L502.725 151.096L579.48 151.096L627.9 175.359H540.896ZM466.4 128.005L497.686 147.893L573.088 147.893L533.402 128.005L466.4 128.005ZM461.361 124.803L436.951 109.286L496.046 109.286L527.01 124.803L461.361 124.803ZM407.495 90.5622L431.913 106.083L489.655 106.083L458.681 90.5622L407.495 90.5622ZM402.457 87.3593L378.047 71.8431L421.325 71.8431L452.289 87.3593L402.457 87.3593ZM348.591 53.119L373.008 68.6402L414.934 68.6402L383.96 53.119L348.591 53.119ZM343.552 49.9161L342.342 49.1466L341.949 49.9161L-165.194 49.9162L-165.198 49.8966L-165.268 49.9162L-298.668 49.9162L-298.71 49.5666L-300.382 49.9162L-669.091 49.9162V50.4081L-817.903 68.6404H-821.072V69.0286L-970.69 87.3595H-972.718V87.608L-1123.52 106.084H-1126.67V106.47L-1276.3 124.803H-1278.66V125.091L-1464.77 147.893H-1468.02V148.291L-1688.95 175.359H-1689.81V175.465L-1929.96 204.888H-1935.38V205.552L-2243.23 243.27H-2243.43V243.294L-2243.48 243.3L-2243.43 244.051V246.473H-2243.26L-2243.26 246.495L-2243.07 246.473H-2117.64L-2117.63 246.702L-2115.85 246.473H-1992.04L-1992.01 246.871L-1989.09 246.473H-1741.24L-1741.22 246.736L-1739.51 246.473H-1615.62L-1615.58 246.912L-1612.91 246.473H-1364.27L-1364.27 246.477L-1364.25 246.473H-1225.57L-1225.54 246.701L-1224.45 246.473H-1116.19L-1116.1 247.22L-1112.77 246.473H-989.127L-989.024 247.191L-986.121 246.473H-862.118L-862.036 246.98L-860.212 246.473H-611.377L-611.365 246.527L-611.213 246.473H-485.872L-485.687 247.029L-484.343 246.473H-358.726L-358.368 247.361L-356.598 246.473H-233.115L-232.69 247.293L-231.421 246.473H-107.153L-106.774 246.993L-106.2 246.473H893.958L894.956 246.888L895.056 246.473H1019.78L1020.34 246.671L1020.38 246.473H1144.48L1145.59 246.816L1145.65 246.473H1269.81L1271.07 246.82L1271.12 246.473H1396.01L1396.54 246.603L1396.56 246.473H1520.41L1522.36 246.912L1522.42 246.473H1647.78L1648.1 246.539L1648.11 246.473H1772.69L1773.73 246.671L1773.76 246.473H1899.46L1899.53 246.484L1899.53 246.473H2528.1L2528.52 246.529L2528.53 246.473H2653.89L2654.25 246.518L2654.25 246.473H2654.48V243.35L2654.48 243.324L2654.48 243.27H2654.06L2354.97 205.562V204.888H2349.62L2116.49 175.496V175.359H2115.41L1714.47 124.81V124.802H1714.4L1120.53 49.9296V49.916H1120.42L1119.38 49.785L1119.37 49.916L1074.35 49.916L1073.45 49.7955L1073.44 49.916L982.522 49.916L981.599 49.7907L981.589 49.916L936.296 49.9161L935.674 49.8265L935.667 49.9161L890.846 49.9161L889.773 49.7519L889.759 49.9161L844.97 49.9161L843.849 49.7327L843.832 49.9161L798.589 49.9161L797.923 49.799L797.911 49.9161L752.544 49.9161L752.013 49.8155L752.002 49.9161L706.38 49.9161L706.094 49.8572L706.087 49.9161L660.736 49.9161L660.195 49.7943L660.179 49.9161L614.849 49.9161L614.287 49.777L614.267 49.9161L568.88 49.9161L568.39 49.7809L568.368 49.9161L522.914 49.9161L522.48 49.7812L522.456 49.9161L476.945 49.9161L476.601 49.7939L476.576 49.9161L430.323 49.9161L430.262 49.891L430.256 49.9161L384.693 49.9161L383.922 49.5299L383.767 49.9161L343.552 49.9161ZM429.785 53.119L391.085 53.119L422.059 68.6402L467.046 68.6402L429.785 53.119ZM438.012 53.119L475.273 68.6402L520.095 68.6402L476.482 53.119L438.012 53.119ZM522.509 53.119L485.944 53.119L529.557 68.6402L572.437 68.6402L522.509 53.119ZM533.217 53.119L583.145 68.6402L624.815 68.6402L568.52 53.119L533.217 53.119ZM580.497 53.119L636.792 68.6402L677.258 68.6402L614.525 53.119L580.497 53.119ZM627.794 53.119L690.527 68.6402L729.474 68.6402L660.442 53.119L627.794 53.119ZM674.982 53.119L744.014 68.6402L781.702 68.6402L706.11 53.119L674.982 53.119ZM721.979 53.119L797.57 68.6402L834.205 68.6402L752.295 53.119L721.979 53.119ZM769.447 53.119L851.357 68.6402L886.748 68.6402L798.358 53.119L769.447 53.119ZM816.829 53.119L905.219 68.6402L939.675 68.6402L844.755 53.119L816.829 53.119ZM864.558 53.119L959.478 68.6402L992.087 68.6402L890.645 53.119L864.558 53.119ZM911.78 53.1189L1013.22 68.6402L1043.79 68.6401L936.106 53.1189L911.78 53.1189ZM958.516 53.1189L1066.2 68.6401L1096.69 68.6401L982.343 53.1189L958.516 53.1189ZM1006.12 53.1189L1120.47 68.6401L1190.89 68.6401L1074.18 53.1189L1006.12 53.1189ZM1098.44 53.1189L1215.15 68.6401L1243.36 68.6401L1120.25 53.1189L1098.44 53.1189ZM-667.29 53.1191L-667.27 53.4076L-791.6 68.6404L-764.943 68.6404L-644.858 53.1191L-667.29 53.1191ZM-619.919 53.1191L-619.919 53.1207L-739.993 68.6404L-711.181 68.6403L-597.584 53.1191L-619.919 53.1191ZM-573.966 53.1191V53.1196L-687.56 68.6403L-658.022 68.6403L-550.435 53.1191L-573.966 53.1191ZM-528.044 53.1191L-635.631 68.6403L-604.066 68.6403L-503.129 53.1191L-528.044 53.1191ZM-482.098 53.1191L-583.035 68.6403L-550.337 68.6403L-455.875 53.1191L-482.098 53.1191ZM-436.166 53.1191L-530.628 68.6403L-496.989 68.6403L-408.681 53.1191L-436.166 53.1191ZM-390.227 53.1191L-478.535 68.6403L-443.31 68.6403L-361.434 53.1191L-390.227 53.1191ZM-344.289 53.1191L-426.165 68.6403L-389.894 68.6403L-315.693 53.1191L-344.289 53.1191ZM-300.107 53.1191L-374.308 68.6403L-335.035 68.6403L-265.884 53.1191L-300.107 53.1191ZM-252.349 53.1191L-252.32 53.3436L-320.471 68.6403L-281.022 68.6403L-218.323 53.1191L-252.349 53.1191ZM-206.396 53.1191L-206.35 53.4383L-267.759 68.6403L-232.601 68.6403L-176.786 53.1191L-206.396 53.1191ZM-164.904 53.1191L-220.719 68.6403L-178.855 68.6403L-129.152 53.1191L-164.904 53.1191ZM-118.488 53.1191L-168.191 68.6403L-124.69 68.6403L-81.406 53.1191L-118.488 53.1191ZM-72.5391 53.1191L-72.5022 53.2962L-115.292 68.6403L-63.3625 68.6403L-25.8906 53.1191L-72.5391 53.1191ZM-18.666 53.1191L-18.53 53.5281L-55.0142 68.6403L-9.47217 68.6403L21.4463 53.1191L-18.666 53.1191ZM26.7959 53.119L27.093 53.856L-2.35718 68.6403L37.8032 68.6403L61.8137 53.119L26.7959 53.119ZM66.4282 53.119L66.7444 53.7282L43.6763 68.6403L85.1377 68.6403L102.251 53.119L66.4282 53.119ZM106.221 53.119L106.527 53.5398L89.8777 68.6403L132.386 68.6403L142.593 53.119L106.221 53.119ZM146.405 53.119L136.198 68.6403L179.625 68.6402L182.926 53.119L146.405 53.119ZM186.197 53.119L182.896 68.6402L226.885 68.6402L223.279 53.119L186.197 53.119ZM226.563 53.119L230.169 68.6402L273.359 68.6402L262.844 53.119L226.563 53.119ZM266.691 53.119L277.206 68.6402L320.705 68.6402L303.292 53.119L266.691 53.119ZM308.077 53.119L342.647 53.119L367.064 68.6402L325.49 68.6402L308.077 53.119ZM459.414 87.3593L428.45 71.8431L474.735 71.8431L511.984 87.3593L459.414 87.3593ZM482.962 71.8431L529.095 71.8431L572.693 87.3593L520.211 87.3593L482.962 71.8431ZM582.155 87.3593L538.557 71.8431L582.74 71.8431L632.651 87.3593L582.155 87.3593ZM643.36 87.3593L593.448 71.8431L636.432 71.8431L692.708 87.3593L643.36 87.3593ZM704.686 87.3593L648.409 71.8431L690.203 71.8431L752.916 87.3593L704.686 87.3593ZM766.185 87.3593L703.472 71.8431L743.719 71.8431L812.73 87.3593L766.185 87.3593ZM827.27 87.3593L758.26 71.8431L797.301 71.8431L872.868 87.3593L827.27 87.3593ZM888.736 87.3593L813.169 71.8431L851.108 71.8431L932.992 87.3593L888.736 87.3593ZM950.144 87.3593L868.26 71.8431L904.988 71.8431L993.349 87.3593L950.144 87.3593ZM1011.82 87.3593L923.458 71.8431L959.262 71.8431L1054.15 87.3593L1011.82 87.3593ZM1073.95 87.3592L979.065 71.843L1013.02 71.843L1114.43 87.3592L1073.95 87.3592ZM1135.56 87.3592L1034.15 71.843L1066.01 71.843L1173.65 87.3592L1135.56 87.3592ZM1196.06 87.3592L1088.42 71.843L1120.29 71.843L1234.61 87.3592L1196.06 87.3592ZM1258.38 87.3592L1144.07 71.843L1214.97 71.843L1331.65 87.3592L1258.38 87.3592ZM1355.91 87.3592L1239.23 71.843L1268.73 71.843V71.8384L1391.84 87.3592L1355.91 87.3592ZM-944.386 87.3595L-817.742 71.8433L-789.724 71.8433L-909.771 87.3595L-944.386 87.3595ZM-884.82 87.3595L-764.773 71.8432L-734.623 71.8432L-848.184 87.3595L-884.82 87.3595ZM-824.562 87.3595L-711.001 71.8432L-680.223 71.8432L-787.776 87.3595L-824.562 87.3595ZM-765.384 87.3595L-657.832 71.8432L-624.895 71.8432L-725.8 87.3595L-765.384 87.3595ZM-704.768 87.3595L-603.864 71.8432L-569.829 71.8432L-664.261 87.3595L-704.768 87.3595ZM-644.552 87.3594L-550.121 71.8432L-515.212 71.8432L-603.491 87.3594L-644.552 87.3594ZM-585.037 87.3594L-496.758 71.8432L-460.206 71.8432L-542.055 87.3594L-585.037 87.3594ZM-524.911 87.3594L-443.061 71.8432L-405.206 71.8432L-479.383 87.3594L-524.911 87.3594ZM-463.796 87.3594L-389.619 71.8432L-349.305 71.8432L-418.435 87.3594L-463.796 87.3594ZM-403.87 87.3594L-334.741 71.8432L-293.96 71.8432L-356.639 87.3594L-403.87 87.3594ZM-343.376 87.3594L-280.697 71.8432L-244.118 71.8432L-299.916 87.3594L-343.376 87.3594ZM-288.034 87.3594L-232.237 71.8432L-189.111 71.8432L-238.798 87.3594L-288.034 87.3594ZM-228.135 87.3594L-178.448 71.8432L-133.622 71.8432L-176.892 87.3594L-228.135 87.3594ZM-167.494 87.3594L-124.224 71.8432L-71.0952 71.8432L-108.555 87.3594L-167.494 87.3594ZM-100.207 87.3594L-62.7468 71.8432L-15.8523 71.8432L-46.7605 87.3594L-100.207 87.3594ZM-39.6455 87.3594L-8.7373 71.8432L32.8484 71.8432L8.8457 87.3594L-39.6455 87.3594ZM14.7188 87.3594L38.7214 71.8432L81.6062 71.8432L64.498 87.3594L14.7188 87.3594ZM69.238 87.3594L86.3462 71.8431L130.28 71.8431L120.076 87.3594L69.238 87.3594ZM123.888 87.3594L134.092 71.8431L178.944 71.8431L175.643 87.3594L123.888 87.3594ZM178.914 87.3594L182.214 71.8431L227.629 71.8431L231.234 87.3593L178.914 87.3594ZM234.518 87.3593L230.913 71.8431L275.529 71.8431L286.041 87.3593L234.518 87.3593ZM289.888 87.3593L279.376 71.8431L324.298 71.8431L341.705 87.3593L289.888 87.3593ZM346.491 87.3593L329.084 71.8431L372.103 71.8431L396.513 87.3593L346.491 87.3593ZM465.806 90.5622L519.673 90.5622L556.934 106.083L496.78 106.083L465.806 90.5622ZM527.9 90.5622L565.161 106.083L625.306 106.083L581.693 90.5622L527.9 90.5622ZM591.155 90.5622L634.768 106.083L692.883 106.083L642.954 90.5622L591.155 90.5622ZM653.663 90.5622L703.591 106.083L760.62 106.083L704.325 90.5622L653.663 90.5622ZM716.302 90.5622L772.598 106.083L828.594 106.083L765.861 90.5622L716.302 90.5622ZM779.13 90.5622L841.863 106.083L896.008 106.083L826.975 90.5622L779.13 90.5622ZM841.515 90.5622L910.548 106.083L964.058 106.083L888.466 90.5622L841.515 90.5622ZM904.335 90.5622L979.926 106.083L1031.81 106.083L949.895 90.5622L904.335 90.5622ZM967.047 90.5622L1048.96 106.083L1099.98 106.083L1011.59 90.5621L967.047 90.5622ZM1030.06 90.5621L1118.45 106.083L1168.66 106.083L1073.74 90.5621L1030.06 90.5621ZM1093.54 90.5621L1188.46 106.083L1236.81 106.083L1135.36 90.5621L1093.54 90.5621ZM1156.5 90.5621L1257.94 106.083L1303.55 106.083L1195.87 90.5621L1156.5 90.5621ZM1218.28 90.5621L1325.96 106.083L1372.56 106.083L1258.2 90.5621L1218.28 90.5621ZM1281.98 90.5621L1396.33 106.083L1472.44 106.083L1355.73 90.5621L1281.98 90.5621ZM1379.99 90.5621L1496.7 106.083L1540.36 106.083L1417.24 90.5621L1379.99 90.5621ZM-970.528 90.5624L-1097.21 106.084L-1054.64 106.084L-934.551 90.5624L-970.528 90.5624ZM-909.6 90.5624L-1029.69 106.084L-985.223 106.084L-871.625 90.5624L-909.6 90.5624ZM-848.004 90.5624L-961.602 106.084L-917.564 106.084L-809.977 90.5624L-848.004 90.5624ZM-787.585 90.5624L-895.173 106.084L-847.566 106.084L-746.629 90.5623L-787.585 90.5624ZM-725.597 90.5623L-826.535 106.084L-778.216 106.084L-683.754 90.5623L-725.597 90.5623ZM-664.045 90.5623L-758.506 106.084L-710.021 106.084L-621.713 90.5623L-664.045 90.5623ZM-603.259 90.5623L-691.567 106.084L-640.827 106.084L-558.951 90.5623L-603.259 90.5623ZM-541.806 90.5623L-623.682 106.084L-568.895 106.084L-494.694 90.5623L-541.806 90.5623ZM-479.108 90.5623L-553.309 106.084L-501.856 106.084L-432.704 90.5623L-479.108 90.5623ZM-418.14 90.5623L-487.292 106.084L-432.276 106.084L-369.577 90.5623L-418.14 90.5623ZM-356.314 90.5623L-419.013 106.084L-367.248 106.084L-311.433 90.5623L-356.314 90.5623ZM-299.552 90.5623L-355.367 106.084L-298.758 106.084L-249.055 90.5623L-299.552 90.5623ZM-238.391 90.5623L-288.094 106.084L-229.108 106.084L-185.824 90.5623L-238.391 90.5623ZM-176.426 90.5623L-219.71 106.084L-153.759 106.084L-116.287 90.5623L-176.426 90.5623ZM-107.939 90.5623L-145.411 106.084L-84.0588 106.084L-53.1406 90.5623L-107.939 90.5623ZM-46.0256 90.5623L-76.9438 106.084L-20.1196 106.084L3.89087 90.5623L-46.0256 90.5623ZM9.76392 90.5623L-14.2466 106.084L43.8528 106.084L60.9666 90.5623L9.76392 90.5623ZM65.7065 90.5623L48.593 106.084L107.762 106.083L117.969 90.5623L65.7065 90.5623ZM121.782 90.5622L111.575 106.083L171.661 106.083L174.962 90.5622L121.782 90.5622ZM178.233 90.5622L174.931 106.083L235.584 106.083L231.979 90.5622L178.233 90.5622ZM235.262 90.5622L238.868 106.083L298.727 106.083L288.211 90.5622L235.262 90.5622ZM292.058 90.5622L302.574 106.083L362.711 106.083L345.298 90.5622L292.058 90.5622ZM350.084 90.5622L367.497 106.083L425.969 106.083L401.551 90.5622L350.084 90.5622ZM534.135 124.803L503.171 109.286L564.623 109.286L601.872 124.803L534.135 124.803ZM610.098 124.803L572.85 109.286L634.306 109.286L677.904 124.803L610.098 124.803ZM687.366 124.803L643.768 109.286L703.186 109.286L753.097 124.803L687.366 124.803ZM763.806 124.803L713.894 109.286L772.237 109.286L828.514 124.802L763.806 124.803ZM840.491 124.802L784.214 109.286L841.539 109.286L904.252 124.802L840.491 124.802ZM917.521 124.802L854.809 109.286L910.253 109.286L979.263 124.802L917.521 124.802ZM993.803 124.802L924.793 109.286L979.656 109.286L1055.22 124.802L993.803 124.802ZM1071.09 124.802L995.525 109.286L1048.71 109.286L1130.59 124.802L1071.09 124.802ZM1147.74 124.802L1065.86 109.286L1118.22 109.286L1206.58 124.802L1147.74 124.802ZM1225.05 124.802L1136.69 109.286L1188.25 109.286L1283.13 124.802L1225.05 124.802ZM1302.94 124.802L1208.05 109.286L1257.74 109.286L1359.15 124.802L1302.94 124.802ZM1380.28 124.802L1278.87 109.286L1325.77 109.286L1433.41 124.802L1380.28 124.802ZM1455.82 124.802L1348.18 109.286L1396.15 109.286L1510.47 124.802L1455.82 124.802ZM1534.24 124.802L1419.93 109.286L1496.53 109.286L1613.2 124.802L1534.24 124.802ZM1637.46 124.802L1520.79 109.286L1565.7 109.286V109.278L1688.83 124.802L1637.46 124.802ZM-1250 124.803L-1123.36 109.287L-1079.42 109.287L-1199.46 124.803L-1250 124.803ZM-1174.51 124.803L-1054.47 109.287L-1008.66 109.287L-1122.23 124.803H-1174.51ZM-1098.6 124.803L-985.043 109.287L-939.765 109.287L-1047.32 124.803H-1098.6ZM-1024.93 124.803L-917.374 109.287L-868.395 109.286L-969.299 124.803L-1024.93 124.803ZM-948.268 124.803L-847.363 109.286L-797.708 109.286L-892.139 124.803L-948.268 124.803ZM-872.43 124.803L-777.999 109.286L-728.244 109.286L-816.523 124.803L-872.43 124.803ZM-798.069 124.803L-709.79 109.286L-657.723 109.286L-739.572 124.803L-798.069 124.803ZM-722.427 124.803L-640.578 109.286L-584.207 109.286L-658.384 124.803L-722.427 124.803ZM-642.797 124.803L-568.621 109.286L-516.126 109.286L-585.256 124.803H-642.797ZM-570.691 124.803L-501.562 109.286L-445.214 109.286L-507.892 124.803L-570.691 124.803ZM-494.63 124.803L-431.951 109.286L-378.766 109.286L-434.563 124.803L-494.63 124.803ZM-422.682 124.803L-366.885 109.286L-309.014 109.286L-358.701 124.803L-422.682 124.803ZM-348.037 124.803L-298.35 109.286L-238.04 109.286L-281.31 124.803L-348.037 124.803ZM-271.912 124.803L-228.642 109.286L-161.492 109.286L-198.951 124.803L-271.912 124.803ZM-190.603 124.803L-153.144 109.286L-90.439 109.286L-121.347 124.803L-190.603 124.803ZM-114.232 124.803L-83.324 109.286L-25.0745 109.286L-49.0771 124.803H-114.232ZM-43.2041 124.803L-19.2014 109.286L40.3213 109.286L23.2131 124.803L-43.2041 124.803ZM27.9534 124.803L45.0615 109.286L105.656 109.286L95.4521 124.803L27.9534 124.803ZM99.2646 124.803L109.469 109.286L170.979 109.286L167.679 124.803L99.2646 124.803ZM170.95 124.803L174.25 109.286L236.329 109.286L239.933 124.803L170.95 124.803ZM243.217 124.803L239.612 109.286L300.897 109.286L311.409 124.803L243.217 124.803ZM315.256 124.803L304.744 109.286L366.304 109.286L383.712 124.803L315.256 124.803ZM388.498 124.803L371.09 109.286L431.008 109.286L455.417 124.803L388.498 124.803ZM540.527 128.005L580.214 147.893L657.303 147.893L609.561 128.005L540.527 128.005ZM686.904 128.005L617.787 128.005L665.53 147.893L742.785 147.893L686.904 128.005ZM696.366 128.005L752.247 147.893L827.373 147.893L763.4 128.005L696.366 128.005ZM774.109 128.005L838.082 147.893L912.261 147.893L840.131 128.005L774.109 128.005ZM852.108 128.005L924.239 147.893L997.577 147.893L917.197 128.005L852.108 128.005ZM930.466 128.005L1010.85 147.893L1081.96 147.893L993.508 128.005L930.466 128.005ZM1008.05 128.005L1096.5 147.893L1167.68 147.893L1070.82 128.005L1008.05 128.005ZM1086.69 128.005L1183.55 147.893L1252.45 147.893L1147.5 128.005H1086.69ZM1164.65 128.005L1269.6 147.893L1338.07 147.893L1224.82 128.005L1164.65 128.005ZM1243.29 128.005L1356.54 147.893L1424.34 147.893L1302.72 128.005L1243.29 128.005ZM1322.52 128.005L1444.14 147.893L1510.06 147.893L1380.08 128.005L1322.52 128.005ZM1401.22 128.005L1531.19 147.893H1593.6L1455.64 128.005L1401.22 128.005ZM1478.05 128.005L1616.01 147.893L1680.58 147.893L1534.06 128.005L1478.05 128.005ZM1557.84 128.005L1704.36 147.893L1786.83 147.893L1637.29 128.005L1557.84 128.005ZM1661.55 128.005L1811.09 147.893L1871.98 147.893L1714.24 128.005L1661.55 128.005ZM-1276.14 128.006L-1438.46 147.893L-1378.11 147.893L-1224.24 128.006L-1276.14 128.006ZM-1199.29 128.006L-1353.16 147.893L-1291.22 147.893L-1145.67 128.006L-1199.29 128.006ZM-1122.05 128.006L-1267.6 147.893L-1207.37 147.893L-1069.52 128.006L-1122.05 128.006ZM-1047.13 128.006L-1184.98 147.893L-1119.46 147.893L-990.128 128.006L-1047.13 128.006ZM-969.097 128.006L-1098.43 147.893L-1032.67 147.893L-911.632 128.006L-969.097 128.006ZM-891.923 128.006L-1012.96 147.893L-947.894 147.893L-834.745 128.006L-891.923 128.006ZM-816.292 128.006L-929.44 147.893L-861.375 147.893L-756.468 128.006L-816.292 128.006ZM-739.323 128.006L-844.231 147.893L-768.769 147.893L-673.696 128.006L-739.323 128.006ZM-658.109 128.006L-753.182 147.893L-688.13 147.893L-599.526 128.006L-658.109 128.006ZM-584.961 128.006L-673.565 147.893L-601.166 147.893L-520.831 128.006L-584.961 128.006ZM-507.568 128.006L-587.904 147.893L-517.597 147.893L-446.081 128.006L-507.568 128.006ZM-434.2 128.006L-505.715 147.893L-432.642 147.893L-368.958 128.006L-434.2 128.006ZM-358.294 128.006L-421.978 147.893L-345.702 147.893L-290.242 128.006L-358.294 128.006ZM-280.844 128.006L-336.304 147.893L-254.697 147.893L-206.684 128.006L-280.844 128.006ZM-198.336 128.006L-246.349 147.893L-167.343 147.893L-127.727 128.006L-198.336 128.006ZM-120.612 128.006L-160.228 147.893L-84.7964 147.893L-54.0317 128.006L-120.612 128.006ZM-48.1587 128.006L-78.9233 147.893L-2.24609 147.893L19.6816 128.005L-48.1587 128.006ZM24.4219 128.005L2.49414 147.893L80.2676 147.893L93.3459 128.005L24.4219 128.005ZM97.1584 128.005L84.0801 147.893L162.768 147.893L166.998 128.005L97.1584 128.005ZM170.269 128.005L166.039 147.893L245.298 147.893L240.677 128.005L170.269 128.005ZM243.961 128.005L248.581 147.893L327.052 147.893L313.579 128.005L243.961 128.005ZM317.426 128.005L330.9 147.893L409.616 147.893L387.305 128.005L317.426 128.005ZM392.091 128.005L414.402 147.893L491.742 147.893L460.456 128.005L392.091 128.005ZM664.992 151.096L586.605 151.096L635.026 175.359H723.241L664.992 151.096ZM731.468 175.359L673.219 151.096L751.785 151.096L819.963 175.359H731.468ZM829.425 175.359L761.247 151.096L837.676 151.096L915.727 175.359H829.425ZM926.436 175.359L848.385 151.096L923.878 151.096L1011.88 175.359H926.436ZM1023.86 175.359L935.855 151.096L1010.52 151.096L1108.59 175.359H1023.86ZM1121.86 175.359L1023.79 151.096L1096.21 151.096L1204.12 175.359H1121.86ZM1218.66 175.359L1110.75 151.096L1183.28 151.096L1301.45 175.359H1218.66ZM1317.31 175.359L1199.14 151.096L1269.35 151.096L1397.4 175.359H1317.31ZM1414.55 175.359L1286.5 151.096L1356.31 151.096L1494.49 175.359H1414.55ZM1512.96 175.359L1374.78 151.096L1443.93 151.096L1592.31 175.359H1512.96ZM1612.12 175.359L1463.73 151.096L1530.99 151.096L1689.57 175.359H1612.12ZM1710.71 175.359L1552.13 151.096L1615.82 151.096L1784.16 175.359H1710.71ZM1806.57 175.359L1638.24 151.096L1704.18 151.096L1882.94 175.359H1806.57ZM1906.72 175.359L1727.96 151.096L1810.91 151.096L1993.36 175.359H1906.72ZM2017.62 175.359L1835.17 151.096L1897.38 151.095L2089.84 175.359H2017.62ZM-1662.65 175.359L-1464.61 151.096L-1402.89 151.096L-1590.61 175.359H-1662.65ZM-1565.66 175.359L-1377.94 151.096L-1314.66 151.096L-1492.24 175.359H-1565.66ZM-1468.62 175.359L-1291.04 151.096L-1229.57 151.096L-1397.76 175.359H-1468.62ZM-1375.37 175.359L-1207.18 151.096L-1140.29 151.096L-1298.08 175.359H-1375.37ZM-1277.05 175.359L-1119.26 151.096L-1052.16 151.096L-1199.83 175.359H-1277.05ZM-1180.12 175.359L-1032.45 151.096L-966.117 151.096L-1104.16 175.359H-1180.12ZM-1085.71 175.359L-947.663 151.096L-878.271 151.096L-1006.26 175.359H-1085.71ZM-989.119 175.359L-861.126 151.096L-784.081 151.096L-900.075 175.359H-989.119ZM-884.489 175.359L-768.494 151.096L-702.4 151.096L-810.501 175.359H-884.489ZM-795.937 175.359L-687.835 151.096L-614.105 151.096L-712.119 175.359H-795.937ZM-698.856 175.359L-600.842 151.096L-529.115 151.096L-616.368 175.359H-698.856ZM-604.486 175.359L-517.233 151.096L-442.898 151.096L-520.597 175.359H-604.486ZM-509.933 175.359L-432.234 151.096L-354.634 151.096L-422.298 175.359H-509.933ZM-412.9 175.359L-345.236 151.096L-262.429 151.096L-321.007 175.359H-412.9ZM-312.659 175.359L-254.081 151.096L-173.723 151.096L-222.056 175.359H-312.659ZM-214.941 175.359L-166.608 151.096L-89.7512 151.096L-127.286 175.359H-214.941ZM-121.413 175.359L-83.8782 151.096L-5.77759 151.096L-32.5308 175.359H-121.413ZM-27.7905 175.359L-1.03735 151.096L78.1611 151.096L62.2048 175.359H-27.7905ZM66.0173 175.359L81.9736 151.096L162.086 151.096L156.926 175.359H66.0173ZM160.196 175.359L165.357 151.096L246.042 151.096L251.679 175.359H160.196ZM254.962 175.359L249.325 151.096L329.222 151.096L345.661 175.359H254.962ZM349.508 175.359L333.07 151.096L413.209 151.096L440.43 175.359H349.508ZM445.216 175.359L417.995 151.096L496.781 151.096L534.951 175.359H445.216ZM641.417 178.562L693.952 204.888H794.128L730.93 178.562H641.417ZM739.157 178.562L802.355 204.888H902.935L828.963 178.562H739.157ZM838.425 178.562L912.397 204.888H1010.71L926.03 178.562H838.425ZM936.739 178.562L1021.42 204.888H1118.98L1023.5 178.562H936.739ZM1035.48 178.562L1130.96 204.888H1227.94L1121.54 178.562H1035.48ZM1134.8 178.562L1241.21 204.888H1335.45L1218.37 178.562H1134.8ZM1232.91 178.562L1349.99 204.888H1445.26L1317.04 178.562H1232.91ZM1332.91 178.562L1461.12 204.888H1553.23L1414.3 178.562H1332.91ZM1431.45 178.562L1570.38 204.888H1662.65L1512.73 178.562H1431.45ZM1531.2 178.562L1681.12 204.888H1772.9L1611.9 178.562H1531.2ZM1631.7 178.562L1792.7 204.888H1882.56L1710.51 178.562H1631.7ZM1731.64 178.562L1903.7 204.888H1989.01L1806.38 178.562H1731.64ZM1828.79 178.562L2011.42 204.888H2100.49L1906.54 178.562H1828.79ZM1930.32 178.562L2124.27 204.888H2215.4L2017.45 178.562H1930.32ZM2041.71 178.562L2239.66 204.888H2324.05L2115.24 178.562H2041.71ZM-1688.79 178.562L-1903.66 204.888H-1819.07L-1615.39 178.562H-1688.79ZM-1590.44 178.562L-1794.12 204.888H-1708.36L-1515.68 178.562H-1590.44ZM-1492.06 178.562L-1684.74 204.888H-1602.44L-1419.96 178.562H-1492.06ZM-1397.57 178.562L-1580.05 204.888H-1490.11L-1318.91 178.562H-1397.57ZM-1297.88 178.562L-1469.07 204.888H-1379.54L-1219.32 178.562H-1297.88ZM-1199.61 178.562L-1359.83 204.888H-1272.16L-1122.39 178.562H-1199.61ZM-1103.93 178.562L-1253.71 204.888H-1162.03L-1023.16 178.562H-1103.93ZM-1006.01 178.562L-1144.88 204.888H-1041.24L-915.387 178.562H-1006.01ZM-899.801 178.562L-1025.65 204.888H-942.06L-824.771 178.562H-899.801ZM-810.207 178.562L-927.495 204.888H-831.401L-725.057 178.562H-810.207ZM-711.795 178.562L-818.138 204.888H-722.553L-627.885 178.562H-711.795ZM-616.004 178.562L-710.672 204.888H-615.154L-530.853 178.562H-616.004ZM-520.189 178.562L-604.491 204.888H-504.644L-431.229 178.562H-520.189ZM-421.832 178.562L-495.246 204.888H-392.296L-328.74 178.562H-421.832ZM-320.392 178.562L-383.948 204.888H-280.877L-228.436 178.562H-320.392ZM-221.321 178.562L-273.762 204.888H-172.965L-132.24 178.562H-221.321ZM-126.367 178.562L-167.092 204.888H-65.0889L-36.0623 178.562H-126.367ZM-31.322 178.562L-60.3486 204.888H42.7864L60.0986 178.562H-31.322ZM63.9111 178.562L46.5989 204.888H150.645L156.244 178.562H63.9111ZM159.515 178.562L153.916 204.888H258.539L252.423 178.562H159.515ZM255.707 178.562L261.823 204.888H365.666L347.831 178.562H255.707ZM351.678 178.562L369.513 204.888H473.557L444.023 178.562H351.678ZM448.809 178.562L478.344 204.888H581.405L539.99 178.562H448.809ZM693.219 208.091H592.387L645.514 241.861L644.795 243.27H763.421L693.219 208.091ZM769.807 242.899L700.344 208.091H801.817L886.269 243.27H769.658L769.807 242.899ZM894.496 243.27L810.044 208.091H911.934L1010.78 243.27H894.496ZM1020.24 243.27L921.396 208.091H1021.02L1134.18 243.27H1020.24ZM1144.89 243.27L1031.72 208.091H1130.6L1258.19 243.27H1144.89ZM1270.17 243.27L1142.58 208.091H1240.88L1383.07 243.27H1270.17ZM1396.34 243.27L1254.15 208.091H1349.7L1506.16 243.27H1396.34ZM1520.7 243.27L1364.24 208.091H1460.85L1632.18 243.27H1520.7ZM1648.05 243.27L1476.72 208.091H1570.13L1755.78 243.27H1648.05ZM1772.93 243.27L1587.28 208.091H1680.89L1881.22 243.27H1772.93ZM1899.7 243.27L1699.36 208.091H1792.48L2007.62 243.27H1899.7ZM2025.6 242.971L1812.29 208.091H1903.5L2133.42 243.27H2025.57L2025.6 242.971ZM2151.55 242.811L1924.63 208.091H2011.23L2255.29 243.27H2151.51L2151.55 242.811ZM2277.21 243.199L2033.64 208.091H2124.09L2383.27 243.27H2277.2L2277.21 243.199ZM2403.04 242.726L2147.86 208.091H2239.49L2504.02 243.27H2403L2403.04 242.726ZM2528.28 243.27L2263.75 208.091H2349.46L2628.49 243.27H2528.28ZM-2216.93 243.27L-1929.8 208.091H-1843.85L-2116.02 243.27H-2216.93ZM-2091.07 243.27L-1818.9 208.091H-1731.8L-1989.27 243.27H-2091.07ZM-1965.65 243.27L-1708.18 208.091H-1624.64L-1866.61 242.999L-1866.59 243.27H-1965.65ZM-1846.09 243.27L-1602.25 208.091H-1510.94L-1739.71 243.27H-1846.09ZM-1718.68 243.27L-1489.9 208.091H-1399.03L-1613.13 243.27H-1718.68ZM-1593.42 243.27L-1379.32 208.091H-1290.39L-1490.26 243.222L-1490.26 243.27H-1593.42ZM-1472.08 243.27L-1271.93 208.091H-1178.92L-1364.5 243.27H-1472.08ZM-1347.35 243.27L-1161.78 208.091H-1056.55L-1224.73 243.27H-1347.35ZM-1209.14 243.27L-1040.96 208.091H-956.33L-1113.06 243.27H-1209.14ZM-1098.5 243.27L-941.765 208.091H-844.339L-986.445 243.27H-1098.5ZM-973.183 243.27L-831.076 208.091H-734.071L-860.576 243.27H-973.183ZM-848.695 243.27L-722.19 208.091H-625.411L-737.33 243.041L-737.288 243.27H-848.695ZM-727.399 243.27L-614.747 208.091H-513.576L-611.679 243.27H-727.399ZM-602.281 243.27L-504.178 208.091H-400.028L-484.958 243.27H-602.281ZM-476.61 243.27L-391.68 208.091H-287.257L-357.333 243.27H-476.61ZM-350.218 243.27L-280.142 208.091H-177.92L-232.339 243.27H-350.218ZM-226.466 243.27L-172.047 208.091H-68.6204L-107.408 243.27H-226.466ZM-102.668 243.27L-63.8801 208.091H40.6799L17.5457 243.27H-102.668ZM21.3582 243.27L44.4924 208.091H149.964L142.481 243.27H21.3582ZM145.752 243.27L153.234 208.091H259.283L267.456 243.27H145.752ZM270.74 243.27L262.567 208.091H367.836L391.67 243.27H270.74ZM395.154 242.734L371.683 208.091H477.151L516.617 243.27H394.519L395.154 242.734Z" fill="url(#paint1_linear_0_1010)"/>
<path d="M215.461 132.945H139.906V142.012H208.346L215.461 132.945Z" fill="#C5AE36"/>
<path d="M271.274 117.763V107.567L158.067 205.907V216.739L271.274 117.763Z" fill="#B09D33"/>
<path d="M216.104 65.4976L215.237 55.7763L195.763 108.767H199.928L216.104 65.4976Z" fill="#C5AE36"/>
<path d="M214.627 55.5637L139.381 133.417H214.627L159.124 205.683L271.62 108.087H195.629L214.627 55.5637Z" fill="#CCB435" stroke="white" stroke-width="2.07563"/>
</g>
</g>
<rect x="4.5" y="0.861084" width="402" height="246" rx="15.5" stroke="#F2F4F7"/>
</g>
<defs>
<filter id="filter0_d_0_1010" x="0" y="0.361084" width="411" height="255" filterUnits="userSpaceOnUse" color-interpolation-filters="sRGB">
<feFlood flood-opacity="0" result="BackgroundImageFix"/>
<feColorMatrix in="SourceAlpha" type="matrix" values="0 0 0 0 0 0 0 0 0 0 0 0 0 0 0 0 0 0 127 0" result="hardAlpha"/>
<feOffset dy="4"/>
<feGaussianBlur stdDeviation="2"/>
<feComposite in2="hardAlpha" operator="out"/>
<feColorMatrix type="matrix" values="0 0 0 0 0 0 0 0 0 0 0 0 0 0 0 0 0 0 0.25 0"/>
<feBlend mode="normal" in2="BackgroundImageFix" result="effect1_dropShadow_0_1010"/>
<feBlend mode="normal" in="SourceGraphic" in2="effect1_dropShadow_0_1010" result="shape"/>
</filter>
<linearGradient id="paint0_linear_0_1010" x1="205.5" y1="0.361084" x2="205.5" y2="247.361" gradientUnits="userSpaceOnUse">
<stop stop-color="white"/>
<stop offset="1" stop-color="#F4F4F4"/>
</linearGradient>
<linearGradient id="paint1_linear_0_1010" x1="205.5" y1="49.1466" x2="205.5" y2="247.361" gradientUnits="userSpaceOnUse">
<stop stop-color="#DADADA" stop-opacity="0"/>
<stop offset="1" stop-color="#D6D6D6"/>
</linearGradient>
<clipPath id="clip0_0_1010">
<rect x="4" y="0.361084" width="403" height="247" rx="16" fill="white"/>
</clipPath>
<clipPath id="clip1_0_1010">
<path d="M-1.54413 8.6636C-1.54413 4.07825 2.17304 0.361084 6.75839 0.361084H404.242C408.827 0.361084 412.544 4.07825 412.544 8.6636V247.361H-1.54413V8.6636Z" fill="white"/>
</clipPath>
</defs>
</svg>
